HIERARCHY
ROOT Hips
{
    OFFSET 0.000000 0.000000 0.000000
    CHANNELS 6 Xposition Yposition Zposition Zrotation Xrotation Yrotation
    JOINT Spine
    {
        OFFSET -0.000000 8.505030 0.000000
        CHANNELS 3 Zrotation Xrotation Yrotation
        JOINT Spine1
        {
            OFFSET -0.000000 25.070629 0.000000
            CHANNELS 3 Zrotation Xrotation Yrotation
            JOINT Neck
            {
                OFFSET -0.000000 24.967667 2.269788
                CHANNELS 3 Zrotation Xrotation Yrotation
                JOINT Head
                {
                    OFFSET -0.000000 14.520781 -2.074397
                    CHANNELS 3 Zrotation Xrotation Yrotation
                    End Site
                    {
                        OFFSET -0.000000 25.929966 0.000000
                    }
                }
            }
            JOINT LeftShoulder
            {
                OFFSET 4.117346 22.983784 -0.389865
                CHANNELS 3 Zrotation Xrotation Yrotation
                JOINT LeftArm
                {
                    OFFSET 11.957758 0.000000 0.000000
                    CHANNELS 3 Zrotation Xrotation Yrotation
                    JOINT LeftForeArm
                    {
                        OFFSET 31.907600 0.000000 0.000000
                        CHANNELS 3 Zrotation Xrotation Yrotation
                        JOINT LeftHand
                        {
                            OFFSET 28.601147 0.000000 0.000000
                            CHANNELS 3 Zrotation Xrotation Yrotation
                            End Site
                            {
                                OFFSET 15.557981 0.000000 0.000000
                            }
                        }
                    }
                }
            }
            JOINT RightShoulder
            {
                OFFSET -4.061940 22.983784 -0.389865
                CHANNELS 3 Zrotation Xrotation Yrotation
                JOINT RightArm
                {
                    OFFSET -11.957758 0.000000 0.000000
                    CHANNELS 3 Zrotation Xrotation Yrotation
                    JOINT RightForeArm
                    {
                        OFFSET -31.907600 0.000000 0.000000
                        CHANNELS 3 Zrotation Xrotation Yrotation
                        JOINT RightHand
                        {
                            OFFSET -28.601147 0.000000 0.000000
                            CHANNELS 3 Zrotation Xrotation Yrotation
                            End Site
                            {
                                OFFSET -15.557981 0.000000 0.000000
                            }
                        }
                    }
                }
            }
        }
    }
    JOINT LeftUpLeg
    {
        OFFSET 10.371986 0.000000 0.000000
        CHANNELS 3 Zrotation Xrotation Yrotation
        JOINT LeftLeg
        {
            OFFSET -0.000000 -42.486427 0.000000
            CHANNELS 3 Zrotation Xrotation Yrotation
            JOINT LeftFoot
            {
                OFFSET -0.000000 -48.322342 0.000000
                CHANNELS 3 Zrotation Xrotation Yrotation
                JOINT LeftToeBase
                {
                    OFFSET -0.000000 -6.741791 15.557981
                    CHANNELS 3 Zrotation Xrotation Yrotation
                    End Site
                    {
                        OFFSET -0.000000 0.000000 4.148795
                    }
                }
            }
        }
    }
    JOINT RightUpLeg
    {
        OFFSET -10.371986 0.000000 0.000000
        CHANNELS 3 Zrotation Xrotation Yrotation
        JOINT RightLeg
        {
            OFFSET -0.000000 -42.486427 0.000000
            CHANNELS 3 Zrotation Xrotation Yrotation
            JOINT RightFoot
            {
                OFFSET -0.000000 -48.322342 0.000000
                CHANNELS 3 Zrotation Xrotation Yrotation
                JOINT RightToeBase
                {
                    OFFSET -0.000000 -6.741791 15.557981
                    CHANNELS 3 Zrotation Xrotation Yrotation
                    End Site
                    {
                        OFFSET -0.000000 0.000000 4.148795
                    }
                }
            }
        }
    }
}
MOTION
Frames:    5
Frame Time:    0.008333
-97.968849    97.132362    62.952255    -0.139197    -5.534876    95.037292    -3.060378    -6.666349    -1.411203    3.196902    -1.388335    -1.194237    -4.086594    25.303495    -6.162882    2.450455    5.394794    -6.541055    2.388517    3.318077    -12.916196    -66.153259    48.123100    -12.713394    -5.367405    -3.687474    10.380815    -15.304893    -2.562937    -4.746778    -11.529260    5.369549    -13.810144    57.782082    74.419899    31.937588    -6.500311    -2.686539    11.593158    17.448610    -2.966677    -6.127710    6.567644    -1.041368    6.183629    -0.599120    17.709492    -3.783405    -2.233845    -18.546942    6.954332    0.000000    0.000000    0.000000    3.698833    -18.981562    1.967638    11.787808    36.919529    -16.294752    2.841852    -13.120052    -15.772179    0.000000    0.000000    0.000000    
-97.354012    97.024284    62.886204    -0.207790    -5.491026    94.884895    -3.216842    -6.929138    -1.455939    3.450163    -0.795775    -1.237252    -4.220559    24.738146    -6.463811    2.775111    5.773471    -6.820745    2.370771    3.067999    -12.721539    -65.395645    47.982712    -13.412135    -5.178455    -4.080973    10.719554    -14.973487    -2.910620    -5.217989    -11.908162    5.019394    -14.066689    59.167580    73.800598    30.705122    -6.094868    -4.586285    11.462823    17.981035    -4.650661    -4.277419    6.444850    -0.661757    6.402187    -0.482477    17.662260    -3.934839    -2.138789    -18.903826    7.039921    0.000000    0.000000    0.000000    3.656691    -19.542372    2.193261    11.536266    35.685543    -15.916259    3.514995    -13.330643    -16.003216    0.000000    0.000000    0.000000    
-96.718132    96.936020    62.812729    -0.156605    -5.485089    94.750710    -3.291277    -6.824656    -1.529784    3.730144    -0.981840    -1.301540    -4.517917    25.025181    -6.632475    3.179952    5.964641    -7.001927    1.968141    3.179711    -12.915263    -64.825424    47.628838    -13.540283    -4.919901    -4.532660    11.105074    -14.291737    -3.399462    -5.238303    -11.869019    5.279488    -14.044541    59.308018    73.056862    30.380157    -5.355030    -5.439288    11.383958    17.467697    -5.489103    -3.802274    6.356809    -0.103551    6.430010    -0.404133    17.515387    -3.933011    -2.103434    -19.216631    7.132920    0.000000    0.000000    0.000000    3.674049    -19.916300    2.389485    11.163838    34.359718    -15.580508    3.404779    -13.170553    -15.978049    0.000000    0.000000    0.000000    
-96.050156    96.857918    62.766285    -0.237724    -5.487832    94.516617    -3.318281    -6.974766    -1.499066    3.797432    -0.933852    -1.265880    -4.437582    25.066462    -6.926777    3.495812    6.269152    -7.284372    1.957326    3.182353    -13.139057    -64.432709    47.098232    -13.851532    -4.712273    -4.909565    11.608326    -13.630781    -3.817463    -5.149353    -11.799535    5.297078    -14.303368    59.912025    72.853905    29.655302    -5.375439    -8.202447    10.901482    18.945555    -7.858077    -0.993224    6.346437    0.434535    6.420120    -0.501292    17.249470    -3.848146    -2.037143    -19.484808    7.292735    0.000000    0.000000    0.000000    3.737405    -20.348259    2.732175    10.862862    32.891968    -15.295811    3.141805    -12.944201    -16.063572    0.000000    0.000000    0.000000    
-95.401894    96.802353    62.715805    -0.223309    -5.493541    94.352806    -3.399050    -6.949796    -1.524507    4.069068    -0.950851    -1.284347    -4.743002    25.072306    -7.135092    4.074541    6.577875    -7.488288    1.677585    3.296640    -13.208353    -63.751202    46.792965    -14.287892    -4.431240    -5.439774    12.087672    -13.135681    -4.324574    -5.638135    -11.862782    5.343884    -14.426290    60.610638    72.247971    28.879887    -4.805477    -9.997927    10.498829    19.878824    -9.421611    0.814469    6.263267    1.054198    6.447287    -0.414786    16.930656    -3.766778    -2.141735    -19.658089    7.313951    0.000000    0.000000    0.000000    3.766614    -20.656942    3.136635    10.658241    31.352373    -15.317378    3.274315    -12.609934    -15.920103    0.000000    0.000000    0.000000    
